<svg width="1000" height="1000" viewBox="0 0 1000 1000" fill="none" xmlns="http://www.w3.org/2000/svg">
<g clip-path="url(#clip0_398_285)">
<circle cx="500" cy="500" r="500" fill="#A69F94"/>
<path fill-rule="evenodd" clip-rule="evenodd" d="M194.238 895.643C208.489 827.736 236.534 765.132 276.184 714.563C335.542 638.86 416.049 596.331 499.993 596.331C583.938 596.331 664.444 638.86 723.802 714.563C763.455 765.134 791.5 827.742 805.75 895.652C923.919 804.201 1000 660.985 1000 500C1000 223.858 776.142 0 500 0C223.858 0 0 223.858 0 500C0 660.98 76.0765 804.192 194.238 895.643ZM633.022 431.194C633.022 502.129 575.518 559.634 504.582 559.634C433.646 559.634 376.142 502.129 376.142 431.194C376.142 360.258 433.646 302.753 504.582 302.753C575.518 302.753 633.022 360.258 633.022 431.194Z" fill="#FFFBF4"/>
</g>
<defs>
<clipPath id="clip0_398_285">
<rect width="1000" height="1000" fill="white"/>
</clipPath>
</defs>
</svg>
